<svg xmlns="http://www.w3.org/2000/svg" focusable="false" data-iml="1612120858952" width="24" height="24" style=""><rect id="backgroundrect" width="100%" height="100%" x="0" y="0" fill="none" stroke="none"/><g class="currentLayer" style=""><title>Layer 1</title><path d="M15.5,14 h-0.79 l-0.28,-0.27 A6.471,6.471 0 0 0 16,9.5 A6.5,6.5 0 1 0 9.5,16 c1.61,0 3.09,-0.5900000000000002 4.23,-1.57 l0.27,0.28 v0.79 l5,4.99 L20.49,19 l-4.99,-5 zm-6,0 C7.01,14 5,11.99 5,9.5 S7.01,5 9.5,5 S14,7.01 14,9.5 S11.99,14 9.5,14 z" id="svg_1" class="selected" fill="#4281e5" fill-opacity="1"/><image id="svg_3" x="8" y="9" width="4" height="0" xmlns:xlink="http://www.w3.org/1999/xlink" xlink:href="logo/vector_paint_icon256.png" style="color: rgb(0, 0, 0);"/></g></svg>